<svg xmlns="http://www.w3.org/2000/svg" style="display: none;"><symbol id="data" viewBox="0 0 512 512"><title>data</title><path d="m512 120v392h-512v-392l30-30h452zm0 0" fill="#e0f4ff"/><path d="m512 120v392h-256v-422h226zm0 0" fill="#bbdcff"/><path d="m0 0h512v120h-512zm0 0" fill="#61729b"/><path d="m256 0h256v120h-256zm0 0" fill="#47568c"/><g fill="#64e1dc"><path d="m61 45h30v30h-30zm0 0"/><path d="m121 45h30v30h-30zm0 0"/><path d="m181 45h30v30h-30zm0 0"/></g><path d="m361 45h90v30h-90zm0 0" fill="#00c8c8"/><path d="m241 301h-180v-120h180zm0 0" fill="#64e1dc"/><path d="m61 361h90v30h-90zm0 0" fill="#bbdcff"/><path d="m61 421h90v30h-90zm0 0" fill="#bbdcff"/><path d="m361 421h90v30h-90zm0 0" fill="#9abadb"/><path d="m361 361h90v30h-90zm0 0" fill="#9abadb"/><path d="m408.574219 226.441406h-42.425781l-169.707032 169.707032-42.425781 84.851562 84.851563-42.425781 169.707031-169.707031zm0 0" fill="#ff641a"/><path d="m408.574219 268.867188v-42.425782l-254.558594 254.558594 84.851563-42.425781zm0 0" fill="#f03800"/><path d="m429.785156 205.226562-21.210937-21.210937-42.425781 42.425781 21.210937 21.214844 21.214844 21.210938 42.425781-42.425782zm0 0" fill="#61729b"/><path d="m429.785156 205.222656 21.214844 21.214844-42.425781 42.425781-21.214844-21.214843zm0 0" fill="#47568c"/></symbol><symbol id="home" viewBox="0 0 58 58"><title>home</title><polygon style="fill:#E7ECED;" points="29,1.682 6,23.039 6,27.682 6,57.682 52,57.682 52,27.682 52,23.039 "/><path style="fill:#556080;" d="M36,57.682H22v-17c0-3.866,3.134-7,7-7h0c3.866,0,7,3.134,7,7V57.682z"/><polyline style="fill:none;stroke:#DD352E;stroke-width:2;stroke-linecap:round;stroke-miterlimit:10;" points="1,27.682 29,1.682 57,27.682 "/></symbol><symbol id="product" viewBox="1 -8 511.99995 511"><title>product</title><path d="m156.203125 356.296875h208.273437v138.847656h-208.273437zm0 0" fill="#ea9d2d"/><path d="m364.476562 356.296875h-208.273437l34.710937-86.78125h138.847657zm0 0" fill="#c38325"/><path d="m156.203125 356.296875h-60.746094l34.710938-86.78125h60.746093zm0 0" fill="#f7ba61"/><path d="m364.476562 356.296875h60.742188l-34.710938-86.78125h-60.746093zm0 0" fill="#f7ba61"/><path d="m286.371094 417.042969-26.03125-8.679688-26.035156 8.679688v-60.746094h52.066406zm0 0" fill="#f55648"/><path d="m338.441406 460.433594h-43.390625c-4.792969 0-8.679687-3.886719-8.679687-8.679688 0-4.792968 3.886718-8.679687 8.679687-8.679687h43.390625c4.792969 0 8.675782 3.886719 8.675782 8.679687 0 4.792969-3.882813 8.679688-8.675782 8.679688zm0 0" fill="#c38325"/><path d="m190.914062 269.515625h138.847657v86.78125h-138.847657zm0 0" fill="#da922a"/><path d="m485.964844 148.023438c0 23.964843-19.425782 43.390624-43.386719 43.390624-23.964844 0-43.390625-19.425781-43.390625-43.390624 0-23.960938 19.425781-43.386719 43.390625-43.386719 23.960937 0 43.386719 19.425781 43.386719 43.386719zm0 0" fill="#f7ba61"/><path d="m459.933594 191.414062c0 23.964844-19.425782 43.390626-43.390625 43.390626-23.964844 0-43.390625-19.425782-43.390625-43.390626 0-23.960937 19.425781-43.390624 43.390625-43.390624 23.964843 0 43.390625 19.429687 43.390625 43.390624zm0 0" fill="#6cbae5"/><path d="m512 191.414062c0 23.964844-19.425781 43.390626-43.390625 43.390626-23.960937 0-43.390625-19.425782-43.390625-43.390626 0-23.960937 19.429688-43.390624 43.390625-43.390624 23.964844 0 43.390625 19.429687 43.390625 43.390624zm0 0" fill="#f55648"/><path d="m425.566406 187.945312c.964844-12.304687 7.15625-23.609374 17.011719-31.042968-12.316406-9.453125-28.773437-11.523438-43.042969-5.40625 1.234375 16.042968 11.257813 30.078125 26.03125 36.449218zm0 0" fill="#89b140"/><path d="m442.578125 156.902344c9.851563 7.433594 16.042969 18.738281 17.007813 31.042968 14.773437-6.371093 24.796874-20.40625 26.035156-36.449218-14.269532-6.117188-30.730469-4.046875-43.042969 5.40625zm0 0" fill="#f27e55"/><path d="m459.933594 191.414062c0-1.1875-.261719-2.308593-.347656-3.46875-10.867188 4.628907-23.152344 4.628907-34.019532 0-.085937 1.160157-.347656 2.28125-.347656 3.46875.027344 13.597657 6.460938 26.382813 17.355469 34.511719 10.898437-8.128906 17.332031-20.914062 17.359375-34.511719zm0 0" fill="#d970a2"/><path d="m442.578125 156.902344c-9.855469 7.433594-16.046875 18.738281-17.011719 31.042968 10.867188 4.628907 23.152344 4.628907 34.019532 0-.964844-12.304687-7.15625-23.609374-17.007813-31.042968zm0 0" fill="#3bd6d0"/><path d="m260.339844 199.839844-60.746094-49.089844 60.746094-49.089844 60.746094 49.089844zm0 0" fill="#f7ba61"/><path d="m260.339844 150.75-60.746094-49.089844 60.746094-49.09375 60.746094 49.09375zm0 0" fill="#aedee2"/><path d="m260.339844 98.683594-60.746094-49.09375 60.746094-49.089844 60.746094 49.089844zm0 0" fill="#d970a2"/><path d="m104.136719 130.667969c.09375-23.960938-19.253907-43.464844-43.214844-43.5625-23.964844-.097657-43.46875 19.253906-43.566406 43.214843-.054688 13.820313 6.476562 26.84375 17.589843 35.0625h-.234374v43.386719h52.070312v-43.386719h-.234375c11.035156-8.128906 17.5625-21.007812 17.589844-34.714843zm0 0" fill="#f7ba61"/><path d="m60.746094 208.769531c-4.792969 0-8.679688-3.882812-8.679688-8.675781v-60.746094c0-4.792968 3.886719-8.679687 8.679688-8.679687 4.792968 0 8.679687 3.886719 8.679687 8.679687v60.746094c-.003906 4.792969-3.886719 8.675781-8.679687 8.675781zm0 0" fill="#ea9d2d"/><path d="m60.746094 148.023438c-9.585938 0-17.355469-7.769532-17.355469-17.355469 0-9.582031 7.769531-17.355469 17.355469-17.355469 9.585937 0 17.355468 7.773438 17.355468 17.355469 0 9.585937-7.769531 17.355469-17.355468 17.355469zm0 0" fill="#ea9d2d"/><path d="m34.710938 200.09375h52.070312v8.675781c0 14.378907-11.65625 26.035157-26.035156 26.035157s-26.035156-11.65625-26.035156-26.035157zm0 0" fill="#6fbbc6"/><path d="m147.523438 139.347656h17.359374v17.355469h-17.359374zm0 0" fill="#aedee2"/><g fill="#f7ba61"><path d="m52.066406 43.890625h17.355469v17.355469h-17.355469zm0 0"/><path d="m104.136719 61.246094h17.355469v17.355468h-17.355469zm0 0"/><path d="m0 61.246094h17.355469v17.355468h-17.355469zm0 0"/></g><path d="m251.660156 226.128906h17.355469v17.355469h-17.355469zm0 0" fill="#aedee2"/><path d="m364.476562 78.601562h17.355469v17.355469h-17.355469zm0 0" fill="#aedee2"/></symbol><symbol id="man" viewBox="0 0 512.001 512.001"><title>man</title><polygon style="fill:#EF4C35;" points="278.665,418.858 289.429,390.192 256.407,365.893 223.276,390.276 235.25,418.858 "/><polygon style="fill:#DD3E2B;" points="235.25,418.858 235.881,420.366 221.1,512 292.932,512 278.134,420.278 278.665,418.858 "/><polygon style="fill:#D2D2D7;" points="230.312,512 245.273,419.253 230.816,384.73 184.43,340.627 193.511,406.757 222.988,512 "/><polygon style="fill:#E4E4EA;" points="291.181,512 320.998,405.542 330.084,339.397 281.819,384.598 268.774,419.342 283.721,512 "/><path style="fill:#F5F5F7;" d="M291.867,403.172c9.546,7.025,15.319,0.771,17.475-2.483l30.413-62.511l-39.251-25.908l-9.265,16.683 l-34.522,35.836l-33.594-32.724l-6.511-22.629l-43.549,28.74l29.696,61.038c0.821,1.624,6.844,12.407,18.329,3.966l35.319-25.993 l33.662,24.771C290.603,402.283,291.193,402.675,291.867,403.172z"/><path style="fill:#694B4B;" d="M261.415,0h-9.211c-62.925,0-114.114,51.196-114.114,114.118v15.22v14.245v24.068 c0,0,25.98-2.577,29.176-15.176l-0.017-0.013c1.097-1.193,2.014-2.552,2.661-4.072c14.737-0.444,83.578-0.98,122.89-48.459 c4.692,13.725,20.562,39.713,51.1,47.897c0.63,1.656,1.565,3.15,2.709,4.444l-0.253,0.204c3.194,12.599,29.176,15.176,29.176,15.176 v-24.167v-14.147v-15.22C375.532,51.196,324.338,0,261.415,0z M347.452,144.28l1.099-0.796h0.156l-1.79,1.326L347.452,144.28z M346.893,144.623l0.123-0.388l0.381-0.751h0.155l-0.453,0.943L346.893,144.623z M343.866,146.963l-0.042-0.06l2.814-2.036 l-0.664,0.642l-2.057,1.521L343.866,146.963z M346.189,146.302l-0.881,1.823c-0.007-0.002-0.009-0.002-0.016-0.006l-0.123-0.056 c-0.02-0.009-0.043-0.023-0.06-0.032l1.436-2.855l0.038-0.036L346.189,146.302z"/><path style="fill:#563B3B;" d="M158.204,143.582v-14.245v-15.22c0-61.097,48.263-111.122,108.663-113.978 c-1.81-0.087-3.626-0.14-5.452-0.14h-9.211c-62.925,0-114.114,51.196-114.114,114.118v15.22v14.245v24.068 c0,0,11.48-1.145,20.115-5.607V143.582z"/><path style="fill:#FBCB99;" d="M361.826,151.107c-4.367-1.361-9.111-0.566-12.793,2.14c-3.679,2.708-5.852,7.008-5.852,11.577 v40.943c0,4.567,2.172,8.864,5.852,11.568c2.5,1.841,5.489,2.798,8.517,2.798c1.427,0,2.874-0.211,4.272-0.652 c2.755-0.856,5.459-2.095,8.041-3.679c1.518-0.93,2.851-2.141,3.93-3.556c1.584-0.818,3.003-1.922,4.186-3.257 c5.805-6.565,9.003-14.979,9.003-23.699C386.982,169.534,376.874,155.796,361.826,151.107z"/><path style="fill:#EDBA89;" d="M165.003,153.245c-3.681-2.706-8.429-3.5-12.791-2.143c-15.046,4.694-25.161,18.432-25.161,34.187 c0,15.762,10.114,29.499,25.161,34.191c1.399,0.44,2.842,0.652,4.277,0.652c3.024,0,6.013-0.957,8.514-2.796 c3.684-2.706,5.855-7.003,5.855-11.571v-40.948C170.858,160.253,168.687,155.953,165.003,153.245z"/><path style="fill:#FBCB99;" d="M296.246,277.139c-2.825-2.703-6.615-4.121-10.55-3.976l-0.488,0.023 c-0.877,0.03-1.751,0.144-2.61,0.331c-5.549,1.235-11.204,1.862-16.795,1.862h-17.566c-5.761,0-11.578-0.663-17.297-1.973 c-4.268-0.983-8.742,0.037-12.162,2.764c-3.423,2.726-5.417,6.867-5.417,11.238v41.794l-0.008,0.141 c-0.227,4.146,1.346,8.188,4.319,11.088l28.869,28.12c2.684,2.614,6.283,4.071,10.022,4.071c0.078,0,0.158,0,0.233,0 c3.824-0.063,7.468-1.645,10.118-4.402l29.742-30.872c2.581-2.677,4.021-6.25,4.021-9.965v-39.864 C300.676,283.599,299.077,279.85,296.246,277.139z"/><path style="fill:#EDBA89;" d="M259.476,364.235l-28.872-28.117c-2.973-2.898-4.548-6.938-4.321-11.087l0.013-0.142v-41.794 c0-3.676,1.423-7.176,3.906-9.818c-4.041-0.706-8.2,0.327-11.422,2.892c-3.423,2.726-5.417,6.867-5.417,11.238v41.794l-0.008,0.141 c-0.227,4.146,1.346,8.188,4.319,11.088l28.869,28.12c2.684,2.614,6.283,4.071,10.022,4.071c0.078,0,0.158,0,0.233,0 c3.824-0.063,7.468-1.645,10.117-4.402l0.128-0.134C264.208,367.596,261.562,366.271,259.476,364.235z"/><path style="fill:#FBCB99;" d="M341.015,139.38c-1.738-0.648-3.378-1.402-4.979-2.205c-24.143-11.265-34.164-25.917-38.198-34.658 c-0.239-0.33-0.48-0.694-0.725-1.151c-2.885-5.305-7.382-1.947-7.382-1.947l-0.02-0.011c-22.546,17.293-47.173,27.406-67.647,33.29 c-7.97,2.355-15.605,4.058-22.51,5.296c-13.723,2.52-22.546,2.85-22.546,2.85c-7.517,0.541-13.339,6.799-13.339,14.334v58.625 c0,46.631,37.94,84.566,84.567,84.566h17.566c46.626,0,84.563-37.934,84.563-84.566v-60.961 C350.366,146.84,346.634,141.476,341.015,139.38z"/><path style="fill:#EDBA89;" d="M180.912,213.803v-58.625c0-7.535,5.82-13.792,13.336-14.334c0,0,8.82-0.33,22.546-2.85 c6.908-1.238,14.543-2.941,22.515-5.296c18.116-5.211,39.491-13.741,59.802-27.62c-0.478-0.898-0.903-1.754-1.274-2.562 c-0.239-0.33-0.48-0.694-0.725-1.151c-2.885-5.305-7.382-1.947-7.382-1.947l-0.02-0.011c-22.546,17.293-47.173,27.406-67.647,33.29 c-7.97,2.355-15.605,4.058-22.51,5.296c-13.723,2.52-22.546,2.85-22.546,2.85c-7.517,0.541-13.339,6.799-13.339,14.334v58.625 c0,46.631,37.94,84.566,84.567,84.566h17.236C218.848,298.369,180.912,260.434,180.912,213.803z"/><g> <path style="fill:#324A5E;" d="M92.384,512h140.049l-50.186-179.167l-51.759,21.569l-0.07,0.026 c-21.022,7.379-56.597,34.147-56.597,87.653v51.377C74.099,499,76.444,512,92.384,512z"/> <path style="fill:#324A5E;" d="M438.18,494.081v-51.997c0-54.164-37-81.002-56.674-87.683l-49.812-20.756l-49.961,178.356h137.922 C435.026,512,437.756,499.909,438.18,494.081z"/> </g><g> <path style="fill:#283D4C;" d="M182.247,332.834l-51.759,21.569l-0.07,0.026c-21.022,7.379-56.597,34.147-56.597,87.653v51.377 c0.278,5.54,2.624,18.54,18.563,18.54h2.323v-69.917c0-53.507,35.574-80.275,56.597-87.653l0.069-0.026l33.057-13.776 L182.247,332.834z"/> <path style="fill:#283D4C;" d="M379.854,512v-71.43c0-4.486-3.636-8.121-8.121-8.121c-4.486,0-8.121,3.635-8.121,8.121V512H379.854 z"/> <path style="fill:#283D4C;" d="M150.423,512v-71.43c0-4.486-3.635-8.121-8.121-8.121c-4.486,0-8.121,3.635-8.121,8.121V512H150.423 z"/> </g><path style="fill:#EDBA89;" d="M265.261,220.686c2.985,0,5.414,2.429,5.414,5.414s-2.429,5.414-5.414,5.414h-13.834 c-2.985,0-5.414-2.429-5.414-5.414v-26.39c0-2.985,2.429-5.414,5.414-5.414c2.985,0,5.414,2.429,5.414,5.414v20.976H265.261z"/></symbol><symbol id="contact" viewBox="0 0 512 512"><title>contact</title><path id="SVGCleanerId_0" style="fill:#C1EE92;" d="M201.972,10.001h280.025c11.047,0,20.002,8.955,20.002,20.002v156.014 c0,11.047-8.955,20.002-20.002,20.002H201.972c-11.047,0-20.002-8.955-20.002-20.002V30.003 C181.97,18.956,190.926,10.001,201.972,10.001z"/><g> <path id="SVGCleanerId_0_1_" style="fill:#C1EE92;" d="M201.972,10.001h280.025c11.047,0,20.002,8.955,20.002,20.002v156.014 c0,11.047-8.955,20.002-20.002,20.002H201.972c-11.047,0-20.002-8.955-20.002-20.002V30.003 C181.97,18.956,190.926,10.001,201.972,10.001z"/> </g><path style="fill:#E5F8D2;" d="M481.997,10.001H201.972c-4.136,0-7.98,1.256-11.169,3.407l151.182,109.103L493.398,13.58 C490.163,11.329,486.238,10.001,481.997,10.001z"/><path style="fill:#FF5D5D;" d="M291.613,476.326l12.608-12.608c11.241-11.241,11.241-29.468,0-40.709l-52.695-52.695 c-11.241-11.241-29.468-11.241-40.709,0l-3.434,3.434c-8.682,8.682-22.757,8.682-31.439,0l-37.693-37.693 c-8.682-8.682-8.682-22.757,0-31.439l3.434-3.434c11.241-11.241,11.241-29.468,0-40.709l-52.695-52.695 c-11.241-11.241-29.468-11.241-40.709,0l-12.608,12.608c-34.292,34.292-34.292,89.891,0,124.184l131.755,131.755 C201.721,510.619,257.32,510.619,291.613,476.326z"/><g> <path style="fill:#FFFFFF;" d="M131.765,319.83c0.125-5.518,2.275-11.001,6.487-15.212l3.434-3.434 c11.241-11.241,11.241-29.468,0-40.709L88.991,207.78c-11.241-11.241-29.468-11.241-40.709,0l-12.608,12.608 c-0.562,0.562-1.09,1.145-1.633,1.718L131.765,319.83z"/> <path style="fill:#FFFFFF;" d="M304.221,423.009l-52.695-52.694c-11.241-11.241-29.468-11.241-40.709,0l-3.434,3.434 c-4.211,4.211-9.694,6.362-15.212,6.487l97.723,97.724c0.573-0.544,1.156-1.072,1.718-1.634l12.608-12.608 C315.462,452.477,315.462,434.25,304.221,423.009z"/> </g><path d="M325.983,196.018c-2.63,0-5.21,1.069-7.071,2.93c-1.86,1.86-2.93,4.44-2.93,7.071c0,2.63,1.07,5.21,2.93,7.07 c1.86,1.86,4.44,2.931,7.071,2.931s5.21-1.07,7.071-2.931c1.86-1.859,2.93-4.439,2.93-7.07c0-2.641-1.07-5.21-2.93-7.071 C331.194,197.088,328.613,196.018,325.983,196.018z"/><path d="M499.488,5.649c-0.112-0.086-0.229-0.164-0.344-0.245C494.28,2.003,488.37,0,481.997,0H201.972 c-5.974,0-11.539,1.761-16.22,4.782c-0.372,0.218-0.731,0.46-1.077,0.728c-7.679,5.439-12.706,14.386-12.706,24.492v156.014 c0,16.543,13.459,30.003,30.003,30.003h74.007c5.523,0,10.001-4.478,10.001-10.001c0-5.522-4.477-10.001-10.001-10.001h-64.197 l82.079-95.902l42.271,30.505c1.747,1.26,3.799,1.891,5.853,1.891c2.048,0,4.096-0.628,5.841-1.883l42.332-30.455l82.031,95.844 h-102.2c-5.524,0-10.001,4.478-10.001,10.001c0,5.523,4.477,10.001,10.001,10.001h112.01c16.543,0,30.003-13.459,30.003-30.003 V30.003C512,19.983,507.057,11.101,499.488,5.649z M192.202,188.136c-0.148-0.684-0.231-1.391-0.231-2.119V30.003 c0-1.07,0.173-2.099,0.486-3.067l85.131,61.436L192.202,188.136z M341.995,110.185L217.03,20.002h250.317L341.995,110.185z M491.591,27.199c0.261,0.891,0.407,1.83,0.407,2.803v156.014c0,0.727-0.083,1.435-0.231,2.119L406.45,88.452L491.591,27.199z"/><path d="M447.994,437.118c-1.499,0-2.921,0.33-4.197,0.921h-4.882c-5.524,0-10.001,4.478-10.001,10.001 c0,5.522,4.477,10.001,10.001,10.001h9.08c5.524,0,10.001-4.478,10.001-10.001v-0.921 C457.995,441.597,453.518,437.118,447.994,437.118z"/><path d="M447.994,387.114c-5.523,0-10.001,4.478-10.001,10.001v10.001c0,5.522,4.477,10.001,10.001,10.001 c5.524,0,10.001-4.478,10.001-10.001v-10.001C457.995,391.592,453.518,387.114,447.994,387.114z"/><path d="M398.911,438.039H388.91c-5.523,0-10.001,4.478-10.001,10.001c0,5.522,4.477,10.001,10.001,10.001h10.001 c5.523,0,10.001-4.478,10.001-10.001C408.912,442.518,404.434,438.039,398.911,438.039z"/><path d="M447.994,237.1c-5.523,0-10.001,4.478-10.001,10.001v10.001c0,5.522,4.477,10.001,10.001,10.001 c5.524,0,10.001-4.478,10.001-10.001v-10.001C457.995,241.579,453.518,237.1,447.994,237.1z"/><path d="M447.994,287.105c-5.523,0-10.001,4.478-10.001,10.001v10.001c0,5.523,4.477,10.001,10.001,10.001 c5.524,0,10.001-4.478,10.001-10.001v-10.001C457.995,291.583,453.518,287.105,447.994,287.105z"/><path d="M447.994,337.109c-5.523,0-10.001,4.478-10.001,10.001v10.001c0,5.522,4.477,10.001,10.001,10.001 c5.524,0,10.001-4.478,10.001-10.001V347.11C457.995,341.588,453.518,337.109,447.994,337.109z"/><path d="M63.96,74.007h10.001c5.523,0,10.001-4.478,10.001-10.001s-4.477-10.001-10.001-10.001H63.96 c-5.523,0-10.001,4.478-10.001,10.001S58.437,74.007,63.96,74.007z"/><path d="M113.964,74.007h10.001c5.523,0,10.001-4.478,10.001-10.001s-4.477-10.001-10.001-10.001h-10.001 c-5.523,0-10.001,4.478-10.001,10.001S108.442,74.007,113.964,74.007z"/><path d="M63.96,124.011c5.523,0,10.001-4.478,10.001-10.001v-10.001c0-5.522-4.477-10.001-10.001-10.001 s-10.001,4.478-10.001,10.001v10.001C53.959,119.534,58.437,124.011,63.96,124.011z"/><path d="M63.96,174.016c5.523,0,10.001-4.478,10.001-10.001v-10.001c0-5.522-4.477-10.001-10.001-10.001 s-10.001,4.478-10.001,10.001v10.001C53.959,169.538,58.437,174.016,63.96,174.016z"/><path d="M103.533,402.426c-2.64,0-5.21,1.07-7.081,2.93c-1.86,1.86-2.92,4.44-2.92,7.071c0,2.63,1.06,5.21,2.92,7.071 c1.87,1.859,4.45,2.93,7.081,2.93s5.2-1.07,7.071-2.93c1.86-1.86,2.93-4.44,2.93-7.071c0-2.63-1.07-5.21-2.93-7.071 C108.744,403.496,106.163,402.426,103.533,402.426z"/><path d="M258.599,363.243c-15.122-15.121-39.729-15.122-54.853,0.001l-3.433,3.434c-4.768,4.77-12.528,4.769-17.297,0 l-37.692-37.692c-2.31-2.31-3.582-5.382-3.582-8.648c0-3.266,1.272-6.338,3.583-8.648l3.433-3.434 c15.123-15.123,15.123-39.73,0-54.853l-52.695-52.695c-15.123-15.122-39.731-15.122-54.852,0l-12.609,12.608 c-38.136,38.137-38.136,100.19,0,138.326l34.375,34.375c3.905,3.904,10.238,3.904,14.144,0c3.905-3.905,3.905-10.238,0-14.144 l-34.375-34.375c-30.338-30.338-30.338-79.701,0-110.039l12.608-12.608c7.324-7.325,19.241-7.325,26.565,0l52.694,52.694 c7.325,7.324,7.325,19.241,0,26.565l-3.433,3.434c-1.261,1.261-2.397,2.612-3.418,4.032l-41.621-41.621 c-3.905-3.904-10.238-3.904-14.144,0c-3.905,3.905-3.905,10.238,0,14.144l49.962,49.962c0.824,7.199,4.019,13.865,9.22,19.066 l37.692,37.692c12.568,12.566,33.016,12.567,45.584-0.001l3.434-3.434c7.324-7.325,19.241-7.325,26.565,0l52.695,52.694 c3.547,3.548,5.501,8.266,5.501,13.282c0,5.016-1.954,9.734-5.503,13.282l-7.16,7.16l-47.961-47.961 c-3.905-3.904-10.238-3.904-14.144,0c-3.905,3.905-3.905,10.238,0,14.144l47.268,47.268c-30.403,22.039-73.274,19.378-100.652-8.002 l-25.898-25.898c-3.905-3.903-10.238-3.904-14.143,0c-3.905,3.905-3.905,10.238,0,14.144l25.898,25.898 C179.425,502.465,204.473,512,229.52,512s50.095-9.534,69.164-28.603l12.607-12.608c7.327-7.326,11.361-17.066,11.361-27.426 c0-10.361-4.034-20.101-11.36-27.426L258.599,363.243z"/></symbol></svg>