<svg xmlns="http://www.w3.org/2000/svg" style="display: none;"><symbol id="portfolio" viewBox="0 0 512 512"><title>portfolio</title><path d="M402.29,91.429H182.862V256h58.108c-27.182-21.887-37.602-58.539-25.998-91.451 c11.603-32.913,42.706-54.926,77.604-54.926c34.898,0,66.001,22.013,77.604,54.926c11.604,32.913,1.184,69.565-25.998,91.451 h58.108V91.429z" /><path d="M118.862,45.714c0.012-10.094,8.192-18.274,18.286-18.286h173.714V0H91.433v256h27.429V45.714z" /><path d="M137.147,256h27.429V91.429c0.012-10.094,8.192-18.274,18.286-18.286h173.714V45.714H137.147V256z" /><path d="M337.793,237.248c18.326-18.295,23.821-45.83,13.922-69.758c-9.899-23.928-33.241-39.533-59.136-39.534 c-25.895-0.001-49.239,15.602-59.14,39.529c-9.901,23.927-4.408,51.463,13.916,69.76c1.649-12.023,8.703-22.633,19.152-28.805 c-14.111-14.349-13.976-37.403,0.302-51.585c14.278-14.182,37.333-14.162,51.586,0.045c14.253,14.208,14.348,37.262,0.212,51.586 c2.033,1.226,3.963,2.614,5.773,4.15C331.813,218.838,336.609,227.638,337.793,237.248z" /><rect x="420.576" y="182.857" width="18.286" height="73.143" /><circle cx="292.576" cy="182.857" r="18.286" /><path d="M265.147,241.554v8.183c17.332,8.351,37.525,8.351,54.857,0v-8.183c-0.12-5.881-2.879-11.396-7.513-15.018 c-5.553-4.713-12.633-7.24-19.915-7.107C278.946,218.144,266.777,227.96,265.147,241.554z" /><polygon points="73.147,257.399 73.147,182.857 3.918,182.857 33.431,264.018 " /><path d="M173.719,274.286H88.732L3.835,512h423.263l84.897-237.714H173.719z M365.719,364.415V384 c-0.017,15.142-12.287,27.412-27.429,27.429h-128c-15.142-0.017-27.412-12.287-27.429-27.429v-19.585 c-17.831-4.604-29.458-21.749-27.137-40.018c2.32-18.269,17.864-31.963,36.28-31.963c18.416,0,33.959,13.694,36.28,31.963 c2.32,18.269-9.306,35.414-27.137,40.018V384c0.005,5.047,4.095,9.138,9.143,9.143h128c5.047-0.005,9.138-4.096,9.143-9.143 v-19.585c-17.831-4.604-29.458-21.749-27.137-40.018c2.32-18.269,17.864-31.963,36.28-31.963 c18.416,0,33.959,13.694,36.28,31.963C395.176,342.666,383.55,359.811,365.719,364.415z" /><path d="M356.576,310.857c-8.267-0.027-15.516,5.513-17.661,13.497c-2.145,7.984,1.352,16.411,8.519,20.531v-6.599 c0-5.049,4.093-9.143,9.143-9.143c5.049,0,9.143,4.093,9.143,9.143v6.599c7.167-4.12,10.664-12.547,8.519-20.531 C372.092,316.37,364.843,310.83,356.576,310.857z" /><path d="M201.147,344.885c7.167-4.138,10.662-12.574,8.52-20.569s-9.386-13.553-17.663-13.553 c-8.276,0-15.521,5.559-17.663,13.553c-2.142,7.994,1.352,16.43,8.52,20.569v-6.599c0-5.049,4.093-9.143,9.143-9.143 s9.143,4.093,9.143,9.143V344.885z" /><path d="M36.438,282.054c-8.693,1.452-17.185-3.503-20.197-11.786L0.005,225.616v242.743l68.443-191.641L36.438,282.054z" /></symbol><symbol id="programmer" viewBox="0 0 512 512"><title>programmer</title><path d="M112,400a7.655,7.655,0,0,0-5.546,2.3c-.051.052-.1.1-.156.155A7.656,7.656,0,0,0,104,408a8.009,8.009,0,0,0,8,8h64V400H112Z" /><path d="M240,152a16.019,16.019,0,0,0,16,16V136A16.019,16.019,0,0,0,240,152Z" /><polygon points="139.1 384 176 384 176 352 149.766 352 139.1 384" /><path d="M32,320a16.019,16.019,0,0,0,16,16H176v-1.2a55.381,55.381,0,0,1,4.93-22.8H32Z" /><circle cx="296" cy="152" r="16" /><path d="M304,249.316v21.217c6.286,15.933,20.545,21.655,32,21.655s25.714-5.722,32-21.655V249.317a79.948,79.948,0,0,1-64,0Z" /><circle cx="376" cy="152" r="16" /><path d="M256,112c.782,0,8.243-.353,10.167.2l2.054-6.163A8,8,0,0,1,279.9,101.69,15.715,15.715,0,0,0,288,104a16.019,16.019,0,0,0,16-16,8,8,0,0,1,10.526-7.591l1.63.542a8,8,0,0,1,4.954,4.736,15.906,15.906,0,0,0,29.78,0,8,8,0,0,1,4.954-4.736l1.63-.542A8,8,0,0,1,368,88a16.019,16.019,0,0,0,16,16,15.715,15.715,0,0,0,8.1-2.31,8,8,0,0,1,11.675,4.348l2.054,6.164c1.925-.556,9.385-.2,10.167-.2a16,16,0,0,0,.385-32c-.2.018-.428.032-.68.035a7.822,7.822,0,0,1-6.126-2.724,8,8,0,0,1-1.9-6.428l.051-.342A19.391,19.391,0,0,0,408,68a20.023,20.023,0,0,0-20-20,19.728,19.728,0,0,0-14.781,6.679,8,8,0,0,1-13.766-3.695,23.979,23.979,0,0,0-46.906,0,8,8,0,0,1-13.766,3.7A19.728,19.728,0,0,0,284,48a20.023,20.023,0,0,0-20,20,19.391,19.391,0,0,0,.273,2.546l.051.342A8,8,0,0,1,256.3,80.04c-.252,0-.479-.018-.681-.035A16,16,0,0,0,256,112Z" /><path d="M400,176v-2.868A31.978,31.978,0,0,1,345.013,160H326.987A31.978,31.978,0,0,1,272,173.132V176a64,64,0,0,0,128,0Zm-71.066,32H312V192h16.934c10.461,0,20.737-.324,30.545-.964L360.521,207C350.367,207.664,339.74,208,328.934,208Z" /><path d="M416,136v32a16,16,0,0,0,0-32Z" /><path d="M391.276,119.125A30.924,30.924,0,0,1,384,120a32.016,32.016,0,0,1-27.408-15.5,32.029,32.029,0,0,1-41.184,0A32.016,32.016,0,0,1,288,120a30.924,30.924,0,0,1-7.276-.875l-1.983,5.95A31.971,31.971,0,0,1,326.987,144h18.026a31.971,31.971,0,0,1,48.246-18.925Z" /><path d="M248,464a8,8,0,0,1-4.438-1.344L221.578,448H192v8a24.027,24.027,0,0,0,24,24h23.165L297.1,467.775,279.167,464Z" /><path d="M276.849,415.354,222.358,392H192v40h32a8,8,0,0,1,4.437,1.344L250.422,448H280a8.005,8.005,0,0,1,1.648.172L432.833,480H456a24.027,24.027,0,0,0,24-24V431.408L279.386,415.977A8.056,8.056,0,0,1,276.849,415.354Z" /><path d="M220.221,280.022,288,265.529V239.967A79.766,79.766,0,0,1,256.4,184H256a31.992,31.992,0,0,1-15.473-60,32.17,32.17,0,0,1-5.659-4H48a16.019,16.019,0,0,0-16,16V296H191.755A55.964,55.964,0,0,1,220.221,280.022ZM112,136h16v16H112ZM64,152H48V136H64Zm16-16H96v16H80Zm52.8,97.6-9.6,12.8-32-24a8,8,0,0,1,0-12.8l32-24,9.6,12.8L109.333,216Zm18.628,25.371-14.856-5.942,32-80,14.856,5.942ZM187.2,233.6,210.667,216,187.2,198.4l9.6-12.8,32,24a8,8,0,0,1,0,12.8l-32,24Z" /><polygon points="435.16 398.229 408.063 409.827 480 415.361 480 392 449.647 392 435.16 398.229" /><path d="M445.646,290l-62.776-8.937v0l-1.954-.279a50.5,50.5,0,0,1-89.613.4l-67.709,14.478A40.314,40.314,0,0,0,192,334.8V376h32a8.01,8.01,0,0,1,3.151.646L232,378.725V352h16v33.582l33.934,14.543,54.185,4.168,53.943-4.167L424,385.582V352h16v26.725l4.84-2.075A8.022,8.022,0,0,1,448,376h32V329.6A40.293,40.293,0,0,0,445.646,290Z" /></symbol><symbol id="icon-2144" viewBox="0 0 27.02 27.02"><title>icon-2144</title><path d="M3.674,24.876c0,0-0.024,0.604,0.566,0.604c0.734,0,6.811-0.008,6.811-0.008l0.01-5.581 c0,0-0.096-0.92,0.797-0.92h2.826c1.056,0,0.991,0.92,0.991,0.92l-0.012,5.563c0,0,5.762,0,6.667,0 c0.749,0,0.715-0.752,0.715-0.752V14.413l-9.396-8.358l-9.975,8.358C3.674,14.413,3.674,24.876,3.674,24.876z" /><path d="M0,13.635c0,0,0.847,1.561,2.694,0l11.038-9.338l10.349,9.28c2.138,1.542,2.939,0,2.939,0 L13.732,1.54L0,13.635z" /><polygon points="23.83,4.275 21.168,4.275 21.179,7.503 23.83,9.752 " /></symbol><symbol id="services" viewBox="0 0 512.001 512.001"><title>services</title><g
     id="layer1"><g
       transform="matrix(1.0000926,0,0,1.0000926,-0.02441665,34.951265)"
       id="g98"><g
         transform="matrix(0.45812456,0,0,0.45812456,155.63463,5.6059504)"
         id="g148"><path
           d="m 217.11328,41.046875 h -0.0352 c -5.57812,0.04687 -10.08203,4.589844 -10.08984,10.175781 -0.0117,5.582032 4.47656,10.132813 10.0625,10.203125 h 0.0352 C 222.66406,61.375 227.16797,56.835938 227.17969,51.25 c 0.008,-5.585938 -4.48047,-10.136719 -10.06641,-10.203125 z m 0,0"
           id="path125" /><path
           d="m 0,389.27734 c 0.0234375,22.76953 18.480469,41.22266 41.25,41.25 h 412.5 c 22.76953,-0.0273 41.22656,-18.48047 41.25,-41.25 V 120.53516 H 0 Z M 297.71094,222.06641 c -3.6836,-3.13282 -4.1211,-8.65625 -0.98828,-12.33985 3.1289,-3.67578 8.65234,-4.12109 12.33593,-0.98437 l 56.61328,48.21093 c 1.95313,1.66797 3.07813,4.10157 3.07813,6.66797 0,2.5625 -1.125,5 -3.07813,6.66016 l -56.61328,48.21094 c -3.68359,3.13672 -9.20703,2.6914 -12.33593,-0.98438 -3.13282,-3.67969 -2.69532,-9.19922 0.98828,-12.33594 L 346.5,263.62109 Z M 218.88281,346.1875 254.17187,178.64844 c 0.99219,-4.73047 5.63672,-7.75782 10.36329,-6.76172 4.73047,0.99609 7.7539,5.64062 6.75781,10.36719 l -35.28516,167.54296 c -1,4.73047 -5.63672,7.75391 -10.36718,6.75782 -4.72657,-0.9961 -7.75391,-5.63672 -6.75782,-10.36719 z m -89.55469,-89.23438 56.61329,-48.21093 c 3.68359,-3.13672 9.20703,-2.69141 12.33593,0.98437 3.13282,3.6836 2.69532,9.20703 -0.98828,12.33985 L 148.5,263.62109 l 48.79687,41.55078 c 3.67579,3.13672 4.11719,8.65625 0.98438,12.33594 -3.12891,3.67578 -8.65625,4.1211 -12.33594,0.98438 l -56.61328,-48.21094 c -1.95312,-1.66016 -3.07812,-4.09766 -3.07812,-6.66016 0,-2.5664 1.125,-5 3.07812,-6.66797 z m 0,0"
           id="path127" /><path
           d="M 132.03516,40.777344 H 132 c -5.51953,0.140625 -9.92578,4.652344 -9.92969,10.175781 -0.008,5.519531 4.37891,10.042969 9.89844,10.199219 H 132 c 5.51953,-0.140625 9.92187,-4.652344 9.93359,-10.167969 0.004,-5.523437 -4.38672,-10.046875 -9.90234,-10.207031 z m 0,0"
           id="path129" /><path
           d="M 453.75,-2.082031 H 41.25 C 18.480469,-2.058594 0.0234375,16.398438 0,39.167969 V 103.03516 H 495 V 39.167969 c -0.0234,-22.769531 -18.48047,-41.226563 -41.25,-41.25 z M 46.921875,78.394531 h -0.08594 C 31.527344,78.371094 19.136719,65.945312 19.148438,50.636719 19.160156,35.328125 31.570312,22.925781 46.878906,22.925781 c 15.3125,0 27.726563,12.402344 27.734375,27.710938 0.01563,15.308593 -12.378906,27.734375 -27.691406,27.757812 z M 159.69141,51.054688 C 159.62891,66.308594 147.25,78.644531 132,78.660156 h -0.0859 C 116.80082,78.390625 104.69535,66.046875 104.7227,50.929688 104.7422,35.816406 116.88285,23.511719 131.99613,23.289062 h 0.0937 c 15.28516,0.0625 27.63282,12.488282 27.60157,27.773438 z m 85.07812,0.269531 c -0.0469,15.253906 -12.42578,27.597656 -27.68359,27.601562 H 217 C 201.77734,78.804688 189.51172,66.417969 189.53125,51.191406 189.55469,35.96875 201.86719,23.621094 217.08984,23.546875 h 0.082 c 15.28907,0.0625 27.63672,12.488281 27.60157,27.777344 z m 0,0"
           id="path131" /><path
           d="m 46.957031,40.515625 h -0.03516 c -5.535156,0.109375 -9.96875,4.628906 -9.976563,10.167969 -0.01172,5.542968 4.40625,10.074218 9.949219,10.207031 h 0.02734 c 5.542969,-0.117187 9.972656,-4.632813 9.984375,-10.175781 0.0078,-5.539063 -4.410156,-10.070313 -9.949219,-10.199219 z m 0,0"
           id="path133" /></g><g
         id="g26"><g
   id="g24"><path
   d="M 144.946,460.404 68.505,307.149 C 61.124,292.35 43.16,286.315 28.343,293.656 l -19.979,9.897 c -7.439,3.689 -10.466,12.73 -6.753,20.156 l 90,180 c 3.701,7.423 12.704,10.377 20.083,6.738 l 19.722,-9.771 c 14.875,-7.368 20.938,-25.417 13.53,-40.272 z"
   id="path22" /></g></g><g
         id="g32"><g
   id="g30"><path
   d="m 499.73,247.7 c -12.301,-9 -29.401,-7.2 -39.6,3.9 l -82,100.8 c -5.7,6 -16.5,9.6 -22.2,9.6 h -69.901 c -8.401,0 -15,-6.599 -15,-15 0,-8.401 6.599,-15 15,-15 20.09,0 42.332,0 60,0 16.5,0 30,-13.5 30,-30 0,-16.5 -13.5,-30 -30,-30 -70.446,0 -3.25,0 -78.6,0 -7.476,0 -11.204,-4.741 -17.1,-9.901 -23.209,-20.885 -57.949,-30.947 -93.119,-22.795 -19.528,4.526 -32.697,12.415 -46.053,22.993 L 110.712,261.936 89.016,281.03 174.28,452 h 25.248 146.501 c 28.2,0 55.201,-13.5 72.001,-36 l 87.999,-126 c 9.9,-13.201 7.2,-32.399 -6.299,-42.3 z"
   id="path28" /></g></g><g
         id="g34"></g><g
         id="g36"></g><g
         id="g38"></g><g
         id="g40"></g><g
         id="g42"></g><g
         id="g44"></g><g
         id="g46"></g><g
         id="g48"></g><g
         id="g50"></g><g
         id="g52"></g><g
         id="g54"></g><g
         id="g56"></g><g
         id="g58"></g><g
         id="g60"></g><g
         id="g62"></g></g></g></symbol><symbol id="black-back-closed-envelope-shape" viewBox="0 0 550.795 550.795"><title>black-back-closed-envelope-shape</title><path d="M501.613,491.782c12.381,0,23.109-4.088,32.229-12.16L377.793,323.567c-3.744,2.681-7.373,5.288-10.801,7.767 c-11.678,8.604-21.156,15.318-28.434,20.129c-7.277,4.822-16.959,9.737-29.045,14.755c-12.094,5.024-23.361,7.528-33.813,7.528 h-0.306h-0.306c-10.453,0-21.72-2.503-33.813-7.528c-12.093-5.018-21.775-9.933-29.045-14.755 c-7.277-4.811-16.75-11.524-28.434-20.129c-3.256-2.387-6.867-5.006-10.771-7.809L16.946,479.622 c9.119,8.072,19.854,12.16,32.234,12.16H501.613z" /><path d="M31.047,225.299C19.37,217.514,9.015,208.598,0,198.555V435.98l137.541-137.541 C110.025,279.229,74.572,254.877,31.047,225.299z" /><path d="M520.059,225.299c-41.865,28.336-77.447,52.73-106.75,73.195l137.486,137.492V198.555 C541.98,208.396,531.736,217.306,520.059,225.299z" /><path d="M501.613,59.013H49.181c-15.784,0-27.919,5.33-36.42,15.979C4.253,85.646,0.006,98.97,0.006,114.949 c0,12.907,5.636,26.892,16.903,41.959c11.267,15.061,23.256,26.891,35.961,35.496c6.965,4.921,27.969,19.523,63.012,43.801 c18.917,13.109,35.368,24.535,49.505,34.395c12.05,8.396,22.442,15.667,31.022,21.701c0.985,0.691,2.534,1.799,4.59,3.269 c2.215,1.591,5.018,3.61,8.476,6.107c6.659,4.816,12.191,8.709,16.597,11.683c4.4,2.975,9.731,6.298,15.985,9.988 c6.249,3.685,12.143,6.456,17.675,8.299c5.533,1.842,10.655,2.766,15.367,2.766h0.306h0.306c4.711,0,9.834-0.924,15.368-2.766 c5.531-1.843,11.42-4.608,17.674-8.299c6.248-3.69,11.572-7.02,15.986-9.988c4.406-2.974,9.938-6.866,16.598-11.683 c3.451-2.497,6.254-4.517,8.469-6.102c2.057-1.476,3.605-2.577,4.596-3.274c6.684-4.651,17.1-11.892,31.104-21.616 c25.482-17.705,63.01-43.764,112.742-78.281c14.957-10.447,27.453-23.054,37.496-37.803c10.025-14.749,15.051-30.22,15.051-46.408 c0-13.525-4.873-25.098-14.598-34.737C526.461,63.829,514.932,59.013,501.613,59.013z" /></symbol></svg>
